<svg xmlns="http://www.w3.org/2000/svg" xmlns:xlink="http://www.w3.org/1999/xlink" xmlns:xodm="http://www.corel.com/coreldraw/odm/2003" xml:space="preserve" version="1.0" style="shape-rendering:geometricPrecision;text-rendering:geometricPrecision;image-rendering:optimizeQuality;" viewBox="0 0 22.399 39.33875" x="0px" y="0px" fill-rule="evenodd" clip-rule="evenodd"><defs><style type="text/css">
   
    .fil0 {fill:black}
   
  </style></defs><g><path class="fil0" d="M0.899 7.889l1.48 0 0 -6.99c0,-0.495 0.404,-0.899 0.9,-0.899l6.957 0c0.495,0 0.899,0.404 0.899,0.899l0 6.99 1.48 0c0.496,0 0.9,0.404 0.9,0.899l0 2.194c-0.414,0.038 -0.816,0.224 -1.118,0.554 -0.643,0.702 -0.595,1.798 0.108,2.441l0.038 0.036c-0.153,0.05 -0.299,0.121 -0.433,0.212l-0.004 -0.018c-0.206,-0.927 -1.133,-1.519 -2.061,-1.314 -0.532,0.118 -0.954,0.473 -1.179,0.93 -0.627,-0.03 -1.25,0.284 -1.584,0.866 -0.332,0.577 -0.291,1.269 0.045,1.795 -0.283,0.421 -0.38,0.961 -0.218,1.482 0.285,0.913 1.258,1.424 2.17,1.136l0.053 -0.016c-0.033,0.156 -0.044,0.318 -0.033,0.479l-0.02 -0.006c-0.912,-0.288 -1.886,0.223 -2.17,1.136 -0.162,0.521 -0.065,1.06 0.217,1.481 -0.338,0.528 -0.377,1.223 -0.041,1.802 0.335,0.578 0.956,0.89 1.582,0.86 0.224,0.457 0.646,0.812 1.178,0.93 0.928,0.205 1.855,-0.387 2.061,-1.314l0.012 -0.054c0.12,0.108 0.255,0.199 0.401,0.271l-0.014 0.013c-0.702,0.643 -0.751,1.738 -0.108,2.441 0.292,0.32 0.678,0.504 1.078,0.55 -0.286,2.135 -2.128,3.796 -4.338,3.796l-4.378 0c-2.618,0 -4.759,-2.142 -4.759,-4.759l0 -17.924c0,-0.495 0.404,-0.899 0.899,-0.899zm12.255 10.762l-1.156 0.753 1.132 0.618 1.199 -0.692 -1.175 -0.679zm1.673 -6.881c0,-0.277 0.225,-0.502 0.502,-0.502 0.277,0 0.502,0.225 0.502,0.502l0 1.314 0.818 -0.75c0.204,-0.186 0.52,-0.172 0.706,0.032 0.186,0.203 0.172,0.519 -0.032,0.705l-1.492 1.368 0 1.468 1.294 -0.788c0.069,-0.043 0.149,-0.069 0.235,-0.073 0.276,-0.014 0.511,0.198 0.525,0.474l0.092 1.704 1.337 -0.772 0.439 -1.978c0.059,-0.27 0.326,-0.44 0.596,-0.381 0.269,0.06 0.439,0.327 0.38,0.596l-0.241 1.085 1.138 -0.657c0.239,-0.139 0.546,-0.057 0.684,0.182 0.139,0.239 0.057,0.546 -0.182,0.684l-1.138 0.657 1.057 0.333c0.264,0.083 0.411,0.363 0.329,0.628 -0.082,0.264 -0.363,0.411 -0.627,0.329l-1.936 -0.61 -1.27 0.733 1.318 0.719c0.076,0.039 0.144,0.098 0.194,0.174 0.15,0.232 0.084,0.542 -0.148,0.692l-1.43 0.933 1.335 0.77 1.937 -0.61c0.264,-0.082 0.545,0.065 0.627,0.329 0.082,0.265 -0.065,0.546 -0.329,0.628l-1.058 0.333 1.137 0.657c0.239,0.137 0.322,0.443 0.184,0.682 -0.137,0.239 -0.443,0.322 -0.682,0.184l-1.14 -0.658 0.241 1.086c0.059,0.269 -0.111,0.536 -0.38,0.596 -0.27,0.059 -0.537,-0.111 -0.596,-0.381l-0.44 -1.979 -1.27 -0.734 0.035 1.493c0.007,0.088 -0.01,0.178 -0.052,0.262 -0.125,0.247 -0.426,0.346 -0.673,0.222l-1.522 -0.773 0 1.544 1.492 1.368c0.204,0.186 0.218,0.502 0.032,0.705 -0.186,0.204 -0.502,0.218 -0.706,0.032l-0.818 -0.75 0 1.314c0,0.277 -0.225,0.502 -0.502,0.502 -0.277,0 -0.502,-0.225 -0.502,-0.502l0 -1.314 -0.818 0.75c-0.203,0.186 -0.519,0.172 -0.705,-0.032 -0.186,-0.203 -0.172,-0.519 0.031,-0.705l1.492 -1.368 0 -1.468 -1.293 0.789c-0.069,0.042 -0.149,0.068 -0.235,0.072 -0.276,0.014 -0.512,-0.198 -0.526,-0.474l-0.092 -1.704 -1.336 0.772 -0.439 1.978c-0.059,0.27 -0.326,0.44 -0.596,0.381 -0.269,-0.06 -0.44,-0.327 -0.38,-0.596l0.24 -1.085 -1.138 0.657c-0.239,0.139 -0.545,0.057 -0.684,-0.182 -0.138,-0.239 -0.057,-0.546 0.183,-0.684l1.138 -0.657 -1.057 -0.333c-0.264,-0.083 -0.412,-0.363 -0.329,-0.628 0.082,-0.264 0.363,-0.411 0.627,-0.329l1.936 0.61 1.269 -0.733 -1.317 -0.719c-0.076,-0.039 -0.144,-0.098 -0.194,-0.174 -0.15,-0.232 -0.085,-0.542 0.147,-0.692l1.431 -0.933 -1.335 -0.77 -1.937 0.61c-0.264,0.082 -0.545,-0.065 -0.627,-0.329 -0.083,-0.265 0.065,-0.545 0.329,-0.628l1.058 -0.333 -1.138 -0.657c-0.239,-0.137 -0.321,-0.443 -0.184,-0.682 0.138,-0.239 0.443,-0.322 0.682,-0.184l1.141 0.658 -0.241 -1.086c-0.06,-0.269 0.111,-0.536 0.38,-0.596 0.27,-0.059 0.537,0.111 0.596,0.381l0.439 1.979 1.271 0.734 -0.036 -1.493c-0.006,-0.088 0.011,-0.178 0.053,-0.262 0.124,-0.247 0.425,-0.346 0.672,-0.222l1.522 0.773 0 -1.544 -1.492 -1.368c-0.203,-0.186 -0.217,-0.502 -0.031,-0.705 0.186,-0.204 0.502,-0.218 0.705,-0.032l0.818 0.75 0 -1.314zm1.004 5.31l0 1.383 1.174 -0.678 -0.074 -1.376 -1.1 0.671zm0 3.117l0 1.358 1.228 0.623 -0.031 -1.29 -1.197 -0.691zm-1.004 1.385l0 -1.384 -1.173 0.678 0.074 1.376 1.099 -0.67zm0 -3.118l0 -1.358 -1.227 -0.623 0.03 1.29 1.197 0.691zm1.503 0.867l1.175 0.679 1.156 -0.753 -1.132 -0.618 -1.199 0.692zm-11.662 -16.282l1.456 0 0 3.229 -1.456 0 0 -3.229zm2.722 0l1.456 0 0 3.229 -1.456 0 0 -3.229zm-3.573 4.84l5.88 0 0 -6.451 -5.88 0 0 6.451z"/></g><text x="0" y="46.471000000000004" fill="#000000" font-size="5px" font-weight="bold" font-family="'Helvetica Neue', Helvetica, Arial-Unicode, Arial, Sans-serif">Created by popcornarts</text><text x="0" y="51.471000000000004" fill="#000000" font-size="5px" font-weight="bold" font-family="'Helvetica Neue', Helvetica, Arial-Unicode, Arial, Sans-serif">from the Noun Project</text></svg>